# xmcd
#
# Track frame offsets:
# 150
# 11872
# 23325
# 35962
# 47710
# 62314
# 73495
# 84152
# 96420
# 107437
# 119390
# 128717
# 139377
# 153122
# 163050
# 173975
# 185035
# 196165
# 206985
# 216432
# 229105
# 242157
# 254672
# 267365
#
# Disc length: 3709 seconds
#
#
# Revision: 3
# Processed by: cddbd v1.5.1PL2 Copyright (c) Steve Scherf et al.
# Submitted via: FreeRIP 2.945 
#
DISCID=660e7b18
DTITLE=George Jones - 24 Greatest Gospel Hits
DYEAR=1989
DGENRE=Gospel
TTITLE0=Small Time Laboring Man
TTITLE1=Wandering Soul
TTITLE2=Taggin' Along
TTITLE3=Bringin' It Home
TTITLE4=Family Bible
TTITLE5=Old Brush Arbors
TTITLE6=Won't It Be Wonderful There
TTITLE7=I'll Fly Away
TTITLE8=Where We Never Grow Old
TTITLE9=Take The World But Give Me Jesus
TTITLE10=Boat Of Life
TTITLE11=The Good Ole Bible
TTITLE12=Will There Be Stars In My Crown
TTITLE13=If You Believe
TTITLE14=How Beautiful Heaven Must Be
TTITLE15=Leaning On The Everlasting Arms
TTITLE16=Lord You've Been Mighty Good To Me
TTITLE17=Will The Circle Be Unbroken
TTITLE18=If You Want To Wear A Crown
TTITLE19=Flowers For Mama
TTITLE20=The Old Rugged Cross
TTITLE21=The Unclouded Day
TTITLE22=Sweeter Than The Flowers
TTITLE23=Cup Of Loneliness
EXTD=Highland Music
EXTT0=
EXTT1=
EXTT2=
EXTT3=
EXTT4=
EXTT5=
EXTT6=
EXTT7=
EXTT8=
EXTT9=
EXTT10=
EXTT11=
EXTT12=
EXTT13=
EXTT14=
EXTT15=
EXTT16=
EXTT17=
EXTT18=
EXTT19=
EXTT20=
EXTT21=
EXTT22=
EXTT23=
PLAYORDER=
